# xmcd
#
# Track frame offsets:
#   150
#   18708
#   35085
#   51748
#   65995
#   86869
#   99088
#   116289
#
# Disc length: 1738 seconds
#
# Revision: 0
# Processed by: cddbd v1.5.2PL0 Copyright (c) Steve Scherf et al.
# Submitted via: GXTranscoder 2.0.1939
#
DISCID=7206c808
DTITLE=Procol Harum - Greatest Hits Vol. 1
DYEAR=1900
DGENRE=Blues
TTITLE0=A Whiter Shade Of Pale
TTITLE1=Quite Rightly So
TTITLE2=The Milk Of Human Kindness
TTITLE3=Wish Me Well
TTITLE4=The Devil Came From Kansas
TTITLE5=Conquistador
TTITLE6=Wreck Of The Hesperus
TTITLE7=Glimpse Of Nirvana
EXTD=
EXTT0=
EXTT1=
EXTT2=
EXTT3=
EXTT4=
EXTT5=
EXTT6=
EXTT7=
PLAYORDER=
